<?xml version="1.0" encoding="utf-8"?>
<!-- Generator: Adobe Illustrator 18.0.0, SVG Export Plug-In . SVG Version: 6.00 Build 0)  -->
<!DOCTYPE svg PUBLIC "-//W3C//DTD SVG 1.1//EN" "http://www.w3.org/Graphics/SVG/1.1/DTD/svg11.dtd">
<svg version="1.1" id="Layer_1" xmlns="http://www.w3.org/2000/svg" xmlns:xlink="http://www.w3.org/1999/xlink" x="0px" y="0px"
	 viewBox="0 0 169.3 52.9" enable-background="new 0 0 169.3 52.9" xml:space="preserve">
<g>
	<path fill="#3599CC" d="M1.8,8.3c0-0.8,0.7-1.5,1.6-1.5c0.9,0,1.7,0.7,1.7,1.5v24.6c0,0.8-0.7,1.4-1.6,1.4c-0.9,0-1.7-0.6-1.7-1.4
		V8.3z"/>
	<path fill="#3599CC" d="M29.5,32.9c0,0.8-0.7,1.5-1.6,1.5c-0.9,0-1.6-0.6-1.6-1.5v-2.1c-1.5,2.1-3.8,3.8-7.6,3.8
		c-5.3,0-8.5-3.1-8.5-7.7V16.2c0-0.8,0.7-1.5,1.6-1.5c0.9,0,1.7,0.6,1.7,1.5v10c0,3.6,2.2,5.8,6.1,5.8c3.8,0,6.6-2.4,6.6-6v-9.7
		c0-0.8,0.7-1.5,1.6-1.5c0.9,0,1.6,0.6,1.6,1.5V32.9z"/>
	<path fill="#3599CC" d="M34.8,16.2c0-0.8,0.7-1.5,1.6-1.5c0.9,0,1.7,0.6,1.7,1.5v2c1.5-1.9,3.4-3.6,7.1-3.6c3.6,0,5.9,1.7,7.1,3.8
		c1.6-2.1,3.9-3.8,7.8-3.8c5.1,0,8.2,3,8.2,7.7v10.6c0,0.8-0.7,1.5-1.6,1.5c-0.9,0-1.7-0.6-1.7-1.5V23c0-3.7-2.1-5.8-5.7-5.8
		c-3.3,0-6.1,2.2-6.1,6v9.8c0,0.8-0.7,1.5-1.7,1.5c-0.9,0-1.6-0.6-1.6-1.5v-10c0-3.6-2.2-5.7-5.7-5.7c-3.5,0-6.2,2.5-6.2,6.1v9.7
		c0,0.8-0.7,1.5-1.6,1.5c-0.9,0-1.7-0.6-1.7-1.5V16.2z"/>
	<path fill="#3599CC" d="M73.3,16.2c0-0.8,0.7-1.5,1.6-1.5c0.9,0,1.7,0.6,1.7,1.5v2.1c1.5-2.1,3.8-3.8,7.6-3.8
		c5.3,0,8.5,3.1,8.5,7.7v10.7c0,0.8-0.7,1.5-1.6,1.5c-0.9,0-1.7-0.6-1.7-1.5V23c0-3.6-2.2-5.8-6.1-5.8c-3.8,0-6.6,2.4-6.6,6v9.7
		c0,0.8-0.7,1.5-1.6,1.5c-0.9,0-1.7-0.6-1.7-1.5V16.2z"/>
	<path fill="#3599CC" d="M97.8,16.2c0-0.8,0.7-1.5,1.6-1.5c0.9,0,1.7,0.6,1.7,1.5v16.7c0,0.8-0.7,1.5-1.6,1.5
		c-0.9,0-1.7-0.6-1.7-1.5V16.2z M97.5,8.9c0-0.9,0.9-1.5,1.9-1.5c1.1,0,2,0.6,2,1.5v0.5c0,0.9-0.9,1.5-2,1.5c-1.1,0-1.9-0.6-1.9-1.5
		V8.9z"/>
	<g>
		<path fill="#00679B" d="M167,13.2L142.5,2.7c-0.7-0.3-1.8-0.4-2.5-0.2l-25.3,6.2c-0.7,0.2-0.8,0.7-0.3,1.2l16,13.3
			c0.6,0.5,1.6,0.7,2.3,0.5l19.9-5.5c-0.7-0.3-1.4-0.6-2.2-0.8l-13.8-2.8c-1.3-0.3-2.2-1.6-1.9-2.9c0.3-1.3,1.6-2.2,2.9-1.9
			l13.8,2.8c2.2,0.5,4.2,1.4,5.7,2.7c0.5,0.4,0.9,0.8,1.3,1.3l8.6-2.4C167.7,13.9,167.7,13.5,167,13.2z"/>
		<path fill="#00679B" d="M152.5,20.3l-20.2,5.6c-0.7,0.2-1.7,0-2.3-0.5l-7.8-6.5c-0.6-0.5-1-0.3-1,0.5l0,2.4
			c1.4,4.9,6.8,11.3,11,12.3c3.8,0.2,15.1-3.4,21-8.6l0.4-4.1C153.7,20.5,153.2,20.1,152.5,20.3z"/>
	</g>
	<path fill="#3599CC" d="M156.6,24.5v-4.2c0-0.8-0.6-1.8-1.6-2.7c-1.1-0.9-2.6-1.7-4.3-2l-13.8-2.8c-0.4-0.1-0.7-0.5-0.6-0.9
		c0.1-0.4,0.5-0.7,0.9-0.6l13.8,2.8c1.9,0.4,3.7,1.2,5,2.3c1.3,1.1,2.2,2.4,2.2,3.9v4.2l0,0c0,0.4-0.3,0.8-0.8,0.8
		C157,25.3,156.6,25,156.6,24.5"/>
	<path fill="#3599CC" d="M158.1,33.9c0,0.4-0.3,0.7-0.7,0.7c-0.4,0-0.7-0.3-0.7-0.7v-8.6c0-0.4,0.3-0.7,0.7-0.7
		c0.4,0,0.7,0.3,0.7,0.7V33.9z M158.9,24.1c0,0.8-0.7,1.4-1.5,1.4c-0.9,0-1.6-0.6-1.6-1.4v-0.4c0-0.9,0.7-1.4,1.6-1.4
		c0.9,0,1.5,0.5,1.5,1.4V24.1z"/>
	<path fill="#3599CC" d="M157.4,25.4c0-0.4-0.3-0.8-0.7-0.8c-0.4,0-0.8,0.3-0.8,0.7l-0.7,8.5c0,0.4,0.2,0.8,0.7,0.8
		c0.4,0,0.8-0.3,0.8-0.7L157.4,25.4z"/>
	<path fill="#3599CC" d="M158,33.9c0,0.4,0.4,0.7,0.8,0.7c0.4,0,0.7-0.4,0.7-0.8l-0.7-8.5c0-0.4-0.4-0.7-0.8-0.7
		c-0.4,0-0.7,0.4-0.7,0.8L158,33.9z"/>
	<path fill="#00679B" d="M1.8,44.2c0-0.2,0.2-0.3,0.3-0.3c0.2,0,0.3,0.1,0.3,0.3v5.2c0,0.2-0.1,0.3-0.3,0.3c-0.2,0-0.3-0.1-0.3-0.3
		V44.2z"/>
	<path fill="#00679B" d="M4.1,44.2c0-0.2,0.2-0.3,0.3-0.3h0.1c0.2,0,0.2,0.1,0.3,0.2l3.5,4.5v-4.4c0-0.2,0.1-0.3,0.3-0.3
		c0.2,0,0.3,0.1,0.3,0.3v5.3c0,0.2-0.1,0.3-0.3,0.3h0c-0.1,0-0.2-0.1-0.3-0.2L4.8,45v4.5c0,0.2-0.1,0.3-0.3,0.3
		c-0.2,0-0.3-0.1-0.3-0.3V44.2z"/>
	<path fill="#00679B" d="M12.6,49.6l-2.2-5.2c0-0.1,0-0.1,0-0.2c0-0.2,0.1-0.3,0.3-0.3c0.2,0,0.3,0.1,0.3,0.2l2,4.8l2-4.8
		c0.1-0.1,0.2-0.2,0.3-0.2c0.2,0,0.3,0.1,0.3,0.3c0,0.1,0,0.1,0,0.1l-2.3,5.2c-0.1,0.2-0.2,0.3-0.4,0.3h0
		C12.8,49.8,12.6,49.7,12.6,49.6"/>
	<path fill="#00679B" d="M16.9,44.2c0-0.2,0.1-0.3,0.3-0.3c0.2,0,0.3,0.1,0.3,0.3v5.2c0,0.2-0.1,0.3-0.3,0.3c-0.2,0-0.3-0.1-0.3-0.3
		V44.2z"/>
	<path fill="#00679B" d="M21.8,46.9c0.9,0,1.5-0.4,1.5-1.2v0c0-0.7-0.6-1.1-1.5-1.1H20v2.4H21.8z M19.3,44.3c0-0.2,0.1-0.3,0.3-0.3
		h2.2c0.7,0,1.3,0.2,1.7,0.6c0.3,0.3,0.4,0.7,0.4,1.1v0c0,1-0.6,1.5-1.6,1.7l1.4,1.9c0.1,0.1,0.1,0.1,0.1,0.2c0,0.2-0.2,0.3-0.3,0.3
		c-0.1,0-0.2-0.1-0.3-0.2l-1.6-2.1H20v2c0,0.2-0.1,0.3-0.3,0.3c-0.2,0-0.3-0.1-0.3-0.3V44.3z"/>
	<path fill="#00679B" d="M26.8,44.6h-1.7c-0.2,0-0.3-0.1-0.3-0.3c0-0.2,0.1-0.3,0.3-0.3h4c0.2,0,0.3,0.1,0.3,0.3
		c0,0.2-0.1,0.3-0.3,0.3h-1.7v4.9c0,0.2-0.2,0.3-0.3,0.3c-0.2,0-0.3-0.1-0.3-0.3V44.6z"/>
	<path fill="#00679B" d="M30.7,44.2c0-0.2,0.1-0.3,0.3-0.3s0.3,0.1,0.3,0.3v5.2c0,0.2-0.2,0.3-0.3,0.3s-0.3-0.1-0.3-0.3V44.2z"/>
	<path fill="#00679B" d="M33.1,49.4v-5.2c0-0.2,0.2-0.3,0.3-0.3H37c0.2,0,0.3,0.1,0.3,0.3c0,0.2-0.1,0.3-0.3,0.3h-3.3v2h2.9
		c0.2,0,0.3,0.1,0.3,0.3c0,0.2-0.1,0.3-0.3,0.3h-2.9v2h3.3c0.2,0,0.3,0.1,0.3,0.3c0,0.2-0.1,0.3-0.3,0.3h-3.7
		C33.2,49.8,33.1,49.6,33.1,49.4"/>
	<path fill="#00679B" d="M38.6,44.2c0-0.2,0.2-0.3,0.3-0.3h0.1c0.1,0,0.2,0.1,0.3,0.2l3.5,4.5v-4.4c0-0.2,0.1-0.3,0.3-0.3
		c0.2,0,0.3,0.1,0.3,0.3v5.3c0,0.2-0.1,0.3-0.3,0.3h0c-0.1,0-0.2-0.1-0.3-0.2L39.3,45v4.5c0,0.2-0.1,0.3-0.3,0.3
		c-0.2,0-0.3-0.1-0.3-0.3V44.2z"/>
	<path fill="#00679B" d="M47.2,49.2c1.5,0,2.4-1,2.4-2.3v0c0-1.3-0.9-2.3-2.4-2.3h-1.4v4.6H47.2z M45.2,44.3c0-0.2,0.1-0.3,0.3-0.3
		h1.7c1.8,0,3.1,1.3,3.1,2.9v0c0,1.6-1.3,2.9-3.1,2.9h-1.7c-0.2,0-0.3-0.2-0.3-0.3V44.3z"/>
	<path fill="#00679B" d="M56.7,46.9L56.7,46.9c0-1.3-1-2.4-2.3-2.4c-1.3,0-2.3,1.1-2.3,2.4v0c0,1.3,1,2.4,2.3,2.4
		C55.8,49.3,56.7,48.2,56.7,46.9 M51.5,46.9L51.5,46.9c0-1.6,1.2-3,3-3c1.8,0,3,1.4,3,3v0c0,1.6-1.2,3-3,3
		C52.7,49.9,51.5,48.5,51.5,46.9"/>
	<path fill="#00679B" d="M61.3,49.4v-5.2c0-0.2,0.2-0.3,0.3-0.3h3.6c0.2,0,0.3,0.1,0.3,0.3c0,0.2-0.1,0.3-0.3,0.3h-3.3v2h2.9
		c0.2,0,0.3,0.1,0.3,0.3c0,0.2-0.1,0.3-0.3,0.3h-2.9v2h3.3c0.2,0,0.3,0.1,0.3,0.3c0,0.2-0.1,0.3-0.3,0.3h-3.7
		C61.4,49.8,61.3,49.6,61.3,49.4"/>
	<path fill="#00679B" d="M66.9,44.2c0-0.2,0.1-0.3,0.3-0.3h0.1c0.1,0,0.2,0.1,0.3,0.2l3.5,4.5v-4.4c0-0.2,0.1-0.3,0.3-0.3
		c0.2,0,0.3,0.1,0.3,0.3v5.3c0,0.2-0.1,0.3-0.3,0.3h0c-0.1,0-0.2-0.1-0.3-0.2L67.5,45v4.5c0,0.2-0.1,0.3-0.3,0.3
		c-0.2,0-0.3-0.1-0.3-0.3V44.2z"/>
	<path fill="#00679B" d="M75.8,47.3v-3.1c0-0.2,0.1-0.3,0.3-0.3c0.2,0,0.3,0.1,0.3,0.3v3.1c0,1.3,0.7,2,1.8,2c1.1,0,1.8-0.7,1.8-1.9
		v-3.1c0-0.2,0.1-0.3,0.3-0.3c0.2,0,0.3,0.1,0.3,0.3v3c0,1.7-1,2.6-2.4,2.6C76.8,49.9,75.8,49,75.8,47.3"/>
	<path fill="#00679B" d="M82.2,44.2c0-0.2,0.1-0.3,0.3-0.3h0.1c0.1,0,0.2,0.1,0.3,0.2l3.5,4.5v-4.4c0-0.2,0.1-0.3,0.3-0.3
		c0.2,0,0.3,0.1,0.3,0.3v5.3c0,0.2-0.1,0.3-0.3,0.3h0c-0.1,0-0.2-0.1-0.3-0.2L82.9,45v4.5c0,0.2-0.1,0.3-0.3,0.3
		c-0.2,0-0.3-0.1-0.3-0.3V44.2z"/>
	<path fill="#00679B" d="M91.3,44.3c0-0.2,0.1-0.3,0.3-0.3h3.6c0.2,0,0.3,0.1,0.3,0.3c0,0.2-0.1,0.3-0.3,0.3H92v2.1h2.9
		c0.2,0,0.3,0.1,0.3,0.3c0,0.2-0.1,0.3-0.3,0.3H92v2.2c0,0.2-0.2,0.3-0.3,0.3c-0.2,0-0.3-0.1-0.3-0.3V44.3z"/>
	<path fill="#00679B" d="M96.7,47.3v-3.1c0-0.2,0.1-0.3,0.3-0.3c0.2,0,0.3,0.1,0.3,0.3v3.1c0,1.3,0.7,2,1.8,2c1.1,0,1.8-0.7,1.8-1.9
		v-3.1c0-0.2,0.2-0.3,0.3-0.3c0.2,0,0.3,0.1,0.3,0.3v3c0,1.7-1,2.6-2.4,2.6C97.7,49.9,96.7,49,96.7,47.3"/>
	<path fill="#00679B" d="M104.6,44.6h-1.7c-0.2,0-0.3-0.1-0.3-0.3c0-0.2,0.1-0.3,0.3-0.3h4c0.2,0,0.3,0.1,0.3,0.3
		c0,0.2-0.1,0.3-0.3,0.3h-1.7v4.9c0,0.2-0.1,0.3-0.3,0.3c-0.2,0-0.3-0.1-0.3-0.3V44.6z"/>
	<path fill="#00679B" d="M108.4,47.3v-3.1c0-0.2,0.1-0.3,0.3-0.3c0.2,0,0.3,0.1,0.3,0.3v3.1c0,1.3,0.7,2,1.8,2
		c1.1,0,1.8-0.7,1.8-1.9v-3.1c0-0.2,0.1-0.3,0.3-0.3c0.2,0,0.3,0.1,0.3,0.3v3c0,1.7-1,2.6-2.4,2.6C109.4,49.9,108.4,49,108.4,47.3"
		/>
	<path fill="#00679B" d="M117.2,46.9c0.9,0,1.5-0.4,1.5-1.2v0c0-0.7-0.6-1.1-1.5-1.1h-1.8v2.4H117.2z M114.8,44.3
		c0-0.2,0.1-0.3,0.3-0.3h2.2c0.7,0,1.3,0.2,1.7,0.6c0.3,0.3,0.4,0.7,0.4,1.1v0c0,1-0.6,1.5-1.6,1.7l1.4,1.9c0.1,0.1,0.1,0.1,0.1,0.2
		c0,0.2-0.2,0.3-0.3,0.3c-0.1,0-0.2-0.1-0.3-0.2l-1.6-2.1h-1.7v2c0,0.2-0.1,0.3-0.3,0.3c-0.2,0-0.3-0.1-0.3-0.3V44.3z"/>
	<path fill="#00679B" d="M125.8,46.9L125.8,46.9c0-1.3-1-2.4-2.3-2.4c-1.3,0-2.3,1.1-2.3,2.4v0c0,1.3,1,2.4,2.3,2.4
		C124.9,49.3,125.8,48.2,125.8,46.9 M120.6,46.9L120.6,46.9c0-1.6,1.2-3,3-3c1.8,0,3,1.4,3,3v0c0,1.6-1.2,3-3,3
		C121.7,49.9,120.6,48.5,120.6,46.9"/>
	<path fill="#00679B" d="M130.4,44.2c0-0.2,0.1-0.3,0.3-0.3h0.1c0.1,0,0.2,0.1,0.3,0.2l2.1,3.1l2.1-3.1c0.1-0.1,0.2-0.2,0.3-0.2h0.1
		c0.2,0,0.3,0.1,0.3,0.3v5.2c0,0.2-0.1,0.3-0.3,0.3c-0.2,0-0.3-0.2-0.3-0.3v-4.3l-1.9,2.7c-0.1,0.1-0.2,0.2-0.3,0.2
		c-0.1,0-0.2-0.1-0.3-0.2l-1.9-2.7v4.3c0,0.2-0.1,0.3-0.3,0.3c-0.2,0-0.3-0.1-0.3-0.3V44.2z"/>
	<path fill="#00679B" d="M137.6,49.4v-5.2c0-0.2,0.2-0.3,0.3-0.3h3.6c0.2,0,0.3,0.1,0.3,0.3c0,0.2-0.1,0.3-0.3,0.3h-3.3v2h2.9
		c0.2,0,0.3,0.1,0.3,0.3c0,0.2-0.1,0.3-0.3,0.3h-2.9v2h3.3c0.2,0,0.3,0.1,0.3,0.3c0,0.2-0.1,0.3-0.3,0.3h-3.7
		C137.7,49.8,137.6,49.6,137.6,49.4"/>
	<path fill="#00679B" d="M142.8,49c-0.1,0-0.1-0.1-0.1-0.2c0-0.2,0.2-0.3,0.3-0.3c0.1,0,0.2,0.1,0.2,0.1c0.3,0.4,0.7,0.7,1.2,0.7
		c0.7,0,1.1-0.5,1.1-1.4v-3.6c0-0.2,0.1-0.3,0.3-0.3c0.2,0,0.3,0.2,0.3,0.3v3.6c0,0.7-0.2,1.2-0.5,1.5c-0.3,0.3-0.8,0.5-1.3,0.5
		C143.6,49.8,143.1,49.5,142.8,49"/>
	<path fill="#00679B" d="M152.8,46.9L152.8,46.9c0-1.3-1-2.4-2.3-2.4c-1.3,0-2.3,1.1-2.3,2.4v0c0,1.3,1,2.4,2.3,2.4
		C151.8,49.3,152.8,48.2,152.8,46.9 M147.5,46.9L147.5,46.9c0-1.6,1.2-3,3-3c1.8,0,3,1.4,3,3v0c0,1.6-1.2,3-3,3
		C148.7,49.9,147.5,48.5,147.5,46.9"/>
	<path fill="#00679B" d="M157.3,46.9c0.9,0,1.5-0.4,1.5-1.2v0c0-0.7-0.5-1.1-1.5-1.1h-1.8v2.4H157.3z M154.8,44.3
		c0-0.2,0.2-0.3,0.3-0.3h2.2c0.7,0,1.3,0.2,1.7,0.6c0.3,0.3,0.5,0.7,0.5,1.1v0c0,1-0.7,1.5-1.6,1.7l1.4,1.9c0.1,0.1,0.1,0.1,0.1,0.2
		c0,0.2-0.2,0.3-0.3,0.3c-0.1,0-0.2-0.1-0.3-0.2l-1.6-2.1h-1.7v2c0,0.2-0.1,0.3-0.3,0.3c-0.2,0-0.3-0.1-0.3-0.3V44.3z"/>
</g>
<rect x="0" y="0" opacity="0.2" fill="none" width="169.3" height="52.9"/>
</svg>
